<svg width="73" height="71" viewBox="0 0 73 71" fill="none" xmlns="http://www.w3.org/2000/svg"><path d="M36.5.65L22.74 9.183H10.95v7.232l-7.41 4.664C1.423 22.345 0 24.622 0 27.262v36.157a7.2 7.2 0 002.138 5.113A7.335 7.335 0 007.3 70.65h58.4c4.051 0 7.3-3.218 7.3-7.231V27.262c0-2.64-1.424-4.917-3.54-6.183l-7.41-4.664V9.183H50.26L36.5.65zM18.25 16.415h36.5V34.06L36.5 45.34 18.25 34.06V16.415zm3.65 3.616v5.423h29.2v-5.423H21.9zm-10.95 4.99v4.519L7.3 27.262l3.65-2.242zm51.1 0l3.65 2.241-3.65 2.278v-4.52zM21.9 29.07v5.423h29.2V29.07H21.9z" fill="#A03ADB"/></svg>