<svg width="60" height="54" viewBox="0 0 60 54" fill="none" xmlns="http://www.w3.org/2000/svg"><path d="M54.375 27H45v-7.5c0-4.137 3.363-7.5 7.5-7.5h.938a2.806 2.806 0 002.812-2.813V3.564A2.806 2.806 0 0053.437.75H52.5C42.14.75 33.75 9.14 33.75 19.5v28.125a5.626 5.626 0 005.625 5.625h15A5.626 5.626 0 0060 47.625v-15A5.626 5.626 0 0054.375 27zm-33.75 0H11.25v-7.5c0-4.137 3.363-7.5 7.5-7.5h.938A2.806 2.806 0 0022.5 9.187V3.564A2.806 2.806 0 0019.687.75h-.937C8.39.75 0 9.14 0 19.5v28.125a5.626 5.626 0 005.625 5.625h15a5.626 5.626 0 005.625-5.625v-15A5.626 5.626 0 0020.625 27z" fill="#A03ADB"/></svg>